<svg width="1600" height="1000" viewBox="0 0 1600 1000" fill="none" xmlns="http://www.w3.org/2000/svg">
  <defs>
    <linearGradient id="beam-6" x1="1460" y1="138" x2="820" y2="736" gradientUnits="userSpaceOnUse">
      <stop stop-color="#AEF7FF" stop-opacity="0.62"/>
      <stop offset="0.46" stop-color="#59B8FF" stop-opacity="0.24"/>
      <stop offset="1" stop-color="#071120" stop-opacity="0"/>
    </linearGradient>
    <radialGradient id="glow-6" cx="0" cy="0" r="1" gradientUnits="userSpaceOnUse" gradientTransform="translate(1034 306) rotate(128) scale(440 360)">
      <stop stop-color="#7DEFFF" stop-opacity="0.34"/>
      <stop offset="0.46" stop-color="#328FFF" stop-opacity="0.12"/>
      <stop offset="1" stop-color="#050D18" stop-opacity="0"/>
    </radialGradient>
  </defs>
  <rect width="1600" height="1000" fill="url(#glow-6)"/>
  <g opacity="0.24">
    <path d="M0 292H1600" stroke="#7DEBFF" stroke-width="1"/>
    <path d="M0 452H1600" stroke="#7DEBFF" stroke-width="1"/>
    <path d="M0 612H1600" stroke="#7DEBFF" stroke-width="1"/>
    <path d="M0 772H1600" stroke="#7DEBFF" stroke-width="1"/>
    <path d="M180 0V1000" stroke="#7DEBFF" stroke-width="1"/>
    <path d="M470 0V1000" stroke="#7DEBFF" stroke-width="1"/>
    <path d="M760 0V1000" stroke="#7DEBFF" stroke-width="1"/>
    <path d="M1050 0V1000" stroke="#7DEBFF" stroke-width="1"/>
    <path d="M1340 0V1000" stroke="#7DEBFF" stroke-width="1"/>
  </g>
  <g opacity="0.46">
    <circle cx="1034" cy="306" r="160" stroke="#85F2FF" stroke-opacity="0.34" stroke-width="1.4"/>
    <circle cx="1034" cy="306" r="232" stroke="#5ABEFF" stroke-opacity="0.22" stroke-width="1.1"/>
    <circle cx="1034" cy="306" r="314" stroke="#8FF7FF" stroke-opacity="0.12" stroke-width="1"/>
    <path d="M684 718C928 632 1120 508 1408 384" stroke="url(#beam-6)" stroke-width="2.6" stroke-linecap="round"/>
    <path d="M656 792C848 688 1060 562 1368 444" stroke="#7DEBFF" stroke-opacity="0.18" stroke-width="1.2" stroke-linecap="round" stroke-dasharray="14 17"/>
    <circle cx="1164" cy="358" r="7" fill="#8FF5FF" fill-opacity="0.48"/>
    <circle cx="1272" cy="528" r="4" fill="#5CC0FF" fill-opacity="0.34"/>
    <circle cx="968" cy="310" r="3" fill="#9AF9FF" fill-opacity="0.34"/>
  </g>
  <text x="88" y="900" fill="#8EDFFF" fill-opacity="0.24" font-family="IBM Plex Mono, monospace" font-size="28" letter-spacing="6">PROCESS</text>
</svg>
