<svg width="1600" height="1000" viewBox="0 0 1600 1000" fill="none" xmlns="http://www.w3.org/2000/svg">
  <defs>
    <linearGradient id="beam-4" x1="1460" y1="132" x2="820" y2="744" gradientUnits="userSpaceOnUse">
      <stop stop-color="#AEF7FF" stop-opacity="0.62"/>
      <stop offset="0.46" stop-color="#59B8FF" stop-opacity="0.24"/>
      <stop offset="1" stop-color="#071120" stop-opacity="0"/>
    </linearGradient>
    <radialGradient id="glow-4" cx="0" cy="0" r="1" gradientUnits="userSpaceOnUse" gradientTransform="translate(1256 230) rotate(128) scale(440 360)">
      <stop stop-color="#7DEFFF" stop-opacity="0.34"/>
      <stop offset="0.46" stop-color="#328FFF" stop-opacity="0.12"/>
      <stop offset="1" stop-color="#050D18" stop-opacity="0"/>
    </radialGradient>
  </defs>
  <rect width="1600" height="1000" fill="url(#glow-4)"/>
  <g opacity="0.20">
    <path d="M0 278H1600" stroke="#7DEBFF" stroke-width="1"/>
    <path d="M0 438H1600" stroke="#7DEBFF" stroke-width="1"/>
    <path d="M0 598H1600" stroke="#7DEBFF" stroke-width="1"/>
    <path d="M0 758H1600" stroke="#7DEBFF" stroke-width="1"/>
    <path d="M180 0V1000" stroke="#7DEBFF" stroke-width="1"/>
    <path d="M470 0V1000" stroke="#7DEBFF" stroke-width="1"/>
    <path d="M760 0V1000" stroke="#7DEBFF" stroke-width="1"/>
    <path d="M1050 0V1000" stroke="#7DEBFF" stroke-width="1"/>
    <path d="M1340 0V1000" stroke="#7DEBFF" stroke-width="1"/>
  </g>
  <g opacity="0.46">
    <circle cx="1256" cy="230" r="280" stroke="#85F2FF" stroke-opacity="0.34" stroke-width="1.4"/>
    <circle cx="1256" cy="230" r="352" stroke="#5ABEFF" stroke-opacity="0.22" stroke-width="1.1"/>
    <circle cx="1256" cy="230" r="434" stroke="#8FF7FF" stroke-opacity="0.12" stroke-width="1"/>
    <path d="M696 722C932 638 1110 512 1412 376" stroke="url(#beam-4)" stroke-width="2.6" stroke-linecap="round"/>
    <path d="M664 798C852 692 1050 568 1372 436" stroke="#7DEBFF" stroke-opacity="0.18" stroke-width="1.2" stroke-linecap="round" stroke-dasharray="8 26"/>
    <circle cx="1156" cy="348" r="5" fill="#8FF5FF" fill-opacity="0.48"/>
    <circle cx="1268" cy="522" r="5" fill="#5CC0FF" fill-opacity="0.34"/>
    <circle cx="962" cy="302" r="4" fill="#9AF9FF" fill-opacity="0.34"/>
  </g>
  <text x="88" y="900" fill="#8EDFFF" fill-opacity="0.24" font-family="IBM Plex Mono, monospace" font-size="28" letter-spacing="6">SERVICES</text>
</svg>
