<svg width="1600" height="1000" viewBox="0 0 1600 1000" fill="none" xmlns="http://www.w3.org/2000/svg">
  <defs>
    <linearGradient id="beam-5" x1="1460" y1="135" x2="820" y2="740" gradientUnits="userSpaceOnUse">
      <stop stop-color="#AEF7FF" stop-opacity="0.62"/>
      <stop offset="0.46" stop-color="#59B8FF" stop-opacity="0.24"/>
      <stop offset="1" stop-color="#071120" stop-opacity="0"/>
    </linearGradient>
    <radialGradient id="glow-5" cx="0" cy="0" r="1" gradientUnits="userSpaceOnUse" gradientTransform="translate(960 268) rotate(128) scale(440 360)">
      <stop stop-color="#7DEFFF" stop-opacity="0.34"/>
      <stop offset="0.46" stop-color="#328FFF" stop-opacity="0.12"/>
      <stop offset="1" stop-color="#050D18" stop-opacity="0"/>
    </radialGradient>
  </defs>
  <rect width="1600" height="1000" fill="url(#glow-5)"/>
  <g opacity="0.22">
    <path d="M0 285H1600" stroke="#7DEBFF" stroke-width="1"/>
    <path d="M0 445H1600" stroke="#7DEBFF" stroke-width="1"/>
    <path d="M0 605H1600" stroke="#7DEBFF" stroke-width="1"/>
    <path d="M0 765H1600" stroke="#7DEBFF" stroke-width="1"/>
    <path d="M180 0V1000" stroke="#7DEBFF" stroke-width="1"/>
    <path d="M470 0V1000" stroke="#7DEBFF" stroke-width="1"/>
    <path d="M760 0V1000" stroke="#7DEBFF" stroke-width="1"/>
    <path d="M1050 0V1000" stroke="#7DEBFF" stroke-width="1"/>
    <path d="M1340 0V1000" stroke="#7DEBFF" stroke-width="1"/>
  </g>
  <g opacity="0.46">
    <circle cx="960" cy="268" r="310" stroke="#85F2FF" stroke-opacity="0.34" stroke-width="1.4"/>
    <circle cx="960" cy="268" r="382" stroke="#5ABEFF" stroke-opacity="0.22" stroke-width="1.1"/>
    <circle cx="960" cy="268" r="464" stroke="#8FF7FF" stroke-opacity="0.12" stroke-width="1"/>
    <path d="M690 720C930 635 1115 510 1410 380" stroke="url(#beam-5)" stroke-width="2.6" stroke-linecap="round"/>
    <path d="M660 795C850 690 1055 565 1370 440" stroke="#7DEBFF" stroke-opacity="0.18" stroke-width="1.2" stroke-linecap="round" stroke-dasharray="11 14"/>
    <circle cx="1160" cy="353" r="6" fill="#8FF5FF" fill-opacity="0.48"/>
    <circle cx="1270" cy="525" r="6" fill="#5CC0FF" fill-opacity="0.34"/>
    <circle cx="965" cy="306" r="5" fill="#9AF9FF" fill-opacity="0.34"/>
  </g>
  <text x="88" y="900" fill="#8EDFFF" fill-opacity="0.24" font-family="IBM Plex Mono, monospace" font-size="28" letter-spacing="6">SERVICES</text>
</svg>
