<svg xmlns="http://www.w3.org/2000/svg" width="1600" height="900" viewBox="0 0 1600 900" role="img" aria-labelledby="t d"><title id="t">Brazil-inspired illustration for From Big Cities to Interior Life: Finding Your Brazil</title><desc id="d">Original abstract landscape with a Brazil silhouette, sun, hills and category symbols in the ASH-TRA blue and coral visual style.</desc><defs><linearGradient id="sky" x1="0" y1="0" x2="1" y2="1"><stop stop-color="#0b1627"/><stop offset=".55" stop-color="#10223b"/><stop offset="1" stop-color="#08101c"/></linearGradient><linearGradient id="accent" x1="0" y1="0" x2="1" y2="1"><stop stop-color="#70d5e8"/><stop offset=".5" stop-color="#9b8cff"/><stop offset="1" stop-color="#ff8d64"/></linearGradient><radialGradient id="sun"><stop stop-color="#ff8d64"/><stop offset="1" stop-color="#9b8cff" stop-opacity=".25"/></radialGradient><filter id="glow"><feGaussianBlur stdDeviation="18"/></filter></defs><rect width="1600" height="900" fill="url(#sky)"/><circle cx="1272" cy="186" r="202" fill="#9b8cff" opacity=".11" filter="url(#glow)"/><circle cx="1272" cy="186" r="101" fill="url(#sun)"/><g opacity=".92"><polygon points="0,650 200,457 400,445 600,529 800,471 1000,569 1200,547 1400,511 1600,491 1600,900 0,900" fill="#132c42"/><polygon points="0,595 200,496 400,470 600,476 800,501 1000,379 1200,351 1400,367 1600,457 1600,900 0,900" fill="#0f2538"/><polygon points="0,540 200,319 400,383 600,365 800,426 1000,326 1200,341 1400,327 1600,338 1600,900 0,900" fill="#0a1b2b"/></g><path d="M665 190l120 25 66 86 90 31 20 88-42 63 18 90-79 64-28 114-88 51-55-88-86-27-10-87-75-47 23-95-48-72 63-70 30-94z" fill="rgba(255,255,255,.055)" stroke="rgba(112,213,232,.55)" stroke-width="8"/><path d="M1080 680V500h100v180M1200 680V410h125v270M1345 680V535h100v145" fill="none" stroke="url(#accent)" stroke-width="17"/><path d="M0 765C300 690 440 860 720 785s420-145 880-30" fill="none" stroke="url(#accent)" stroke-width="10" opacity=".7"/><g fill="none" stroke="rgba(112,213,232,.17)"><circle cx="800" cy="450" r="370"/><circle cx="800" cy="450" r="450"/></g></svg>