<svg xmlns="http://www.w3.org/2000/svg" width="1600" height="900" viewBox="0 0 1600 900" role="img" aria-labelledby="t d"><title id="t">Brazil-inspired illustration for Your Brazil Chapter: From First Enquiry to Confident Participation</title><desc id="d">Original abstract landscape with a Brazil silhouette, sun, hills and category symbols in the ASH-TRA blue and coral visual style.</desc><defs><linearGradient id="sky" x1="0" y1="0" x2="1" y2="1"><stop stop-color="#0b1627"/><stop offset=".55" stop-color="#10223b"/><stop offset="1" stop-color="#08101c"/></linearGradient><linearGradient id="accent" x1="0" y1="0" x2="1" y2="1"><stop stop-color="#ffc274"/><stop offset=".5" stop-color="#70d5e8"/><stop offset="1" stop-color="#ff725c"/></linearGradient><radialGradient id="sun"><stop stop-color="#ff725c"/><stop offset="1" stop-color="#70d5e8" stop-opacity=".25"/></radialGradient><filter id="glow"><feGaussianBlur stdDeviation="18"/></filter></defs><rect width="1600" height="900" fill="url(#sky)"/><circle cx="1157" cy="214" r="202" fill="#70d5e8" opacity=".11" filter="url(#glow)"/><circle cx="1157" cy="214" r="101" fill="url(#sun)"/><g opacity=".92"><polygon points="0,650 200,504 400,422 600,541 800,593 1000,581 1200,515 1400,565 1600,485 1600,900 0,900" fill="#132c42"/><polygon points="0,595 200,501 400,468 600,420 800,396 1000,461 1200,363 1400,397 1600,430 1600,900 0,900" fill="#0f2538"/><polygon points="0,540 200,295 400,365 600,392 800,355 1000,384 1200,379 1400,303 1600,335 1600,900 0,900" fill="#0a1b2b"/></g><path d="M665 190l120 25 66 86 90 31 20 88-42 63 18 90-79 64-28 114-88 51-55-88-86-27-10-87-75-47 23-95-48-72 63-70 30-94z" fill="rgba(255,255,255,.055)" stroke="rgba(112,213,232,.55)" stroke-width="8"/><path d="M1110 650c80-190 190-300 360-350-25 165-125 285-360 350z" fill="none" stroke="url(#accent)" stroke-width="18"/><path d="M1170 600c80-65 150-135 230-240" stroke="#c8f0df" stroke-width="12" fill="none"/><path d="M0 765C300 690 440 860 720 785s420-145 880-30" fill="none" stroke="url(#accent)" stroke-width="10" opacity=".7"/><g fill="none" stroke="rgba(112,213,232,.17)"><circle cx="800" cy="450" r="370"/><circle cx="800" cy="450" r="450"/></g></svg>