<svg width="1200" height="630" viewBox="0 0 1200 630" fill="none" xmlns="http://www.w3.org/2000/svg">
  <rect width="1200" height="630" rx="44" fill="#F5EFE8" />
  <circle cx="136" cy="120" r="180" fill="rgba(242,106,59,0.15)" />
  <circle cx="1106" cy="548" r="212" fill="rgba(49,160,163,0.12)" />
  <rect x="76" y="76" width="1048" height="478" rx="36" fill="url(#paint0_linear)" />
  <rect x="76" y="76" width="1048" height="478" rx="36" stroke="rgba(255,255,255,0.12)" />
  <rect x="124" y="124" width="120" height="120" rx="36" fill="rgba(255,255,255,0.08)" stroke="rgba(255,255,255,0.12)" />
  <path d="M156 214L184 151L212 214" stroke="#F8F3EE" stroke-width="10" stroke-linecap="round" stroke-linejoin="round" />
  <path d="M166 192H202" stroke="#F8F3EE" stroke-width="10" stroke-linecap="round" />
  <path d="M210 155H236" stroke="#F26A3D" stroke-width="8" stroke-linecap="round" />
  <path d="M223 155V216" stroke="#F26A3D" stroke-width="8" stroke-linecap="round" />
  <circle cx="223" cy="216" r="6" fill="#31A0A3" />
  <text x="278" y="186" fill="#F8F3EE" font-family="'Fraunces', Georgia, serif" font-size="56" font-weight="700" letter-spacing="-0.06em">
    ash-tra.com
  </text>
  <text x="278" y="226" fill="rgba(248,243,238,0.72)" font-family="'Sora', Arial, sans-serif" font-size="20" font-weight="600" letter-spacing="0.22em">
    AI-NATIVE EDITORIAL SYSTEMS FOR AMBITIOUS SERVICE BRANDS
  </text>
  <text x="124" y="356" fill="#F8F3EE" font-family="'Fraunces', Georgia, serif" font-size="84" font-weight="700" letter-spacing="-0.06em">
    Premium websites that think like products
  </text>
  <text x="124" y="420" fill="rgba(248,243,238,0.78)" font-family="'Sora', Arial, sans-serif" font-size="30" font-weight="400">
    Strategy, positioning, SEO, client intake, and delivery operations in one brand system.
  </text>
  <rect x="124" y="466" width="254" height="54" rx="27" fill="#F26A3D" />
  <text x="154" y="501" fill="#F8F3EE" font-family="'Sora', Arial, sans-serif" font-size="20" font-weight="600" letter-spacing="0.04em">
    ash-tra.com
  </text>
  <defs>
    <linearGradient id="paint0_linear" x1="140" y1="86" x2="1028" y2="580" gradientUnits="userSpaceOnUse">
      <stop stop-color="#0D1622" />
      <stop offset="0.45" stop-color="#14293B" />
      <stop offset="1" stop-color="#1A3A53" />
    </linearGradient>
  </defs>
</svg>
