<svg width="960" height="720" viewBox="0 0 960 720" fill="none" xmlns="http://www.w3.org/2000/svg">
  <rect width="960" height="720" rx="36" fill="#040A12"/>
  <rect x="76" y="76" width="808" height="568" rx="30" fill="url(#paint0_linear)" stroke="rgba(255,255,255,0.12)"/>
  <circle cx="480" cy="360" r="182" stroke="rgba(255,255,255,0.12)" stroke-width="1.5"/>
  <circle cx="480" cy="360" r="262" stroke="rgba(255,255,255,0.08)" stroke-width="1.5"/>
  <circle cx="480" cy="360" r="20" fill="#F4F0EB"/>
  <circle cx="662" cy="360" r="34" fill="#FF8B59"/>
  <circle cx="480" cy="98" r="26" fill="#84F0D1"/>
  <circle cx="250" cy="498" r="24" fill="#27C8F7"/>
  <rect x="126" y="126" width="232" height="152" rx="24" fill="rgba(255,255,255,0.06)"/>
  <rect x="126" y="312" width="232" height="118" rx="24" fill="rgba(255,255,255,0.05)"/>
  <rect x="602" y="470" width="206" height="108" rx="24" fill="rgba(255,255,255,0.05)"/>
  <rect x="154" y="160" width="128" height="14" rx="7" fill="#F4F0EB"/>
  <rect x="154" y="194" width="92" height="10" rx="5" fill="rgba(244,240,235,0.46)"/>
  <rect x="154" y="344" width="136" height="14" rx="7" fill="#F4F0EB"/>
  <rect x="154" y="378" width="74" height="10" rx="5" fill="#84F0D1"/>
  <rect x="630" y="502" width="114" height="12" rx="6" fill="#F4F0EB"/>
  <rect x="630" y="534" width="154" height="10" rx="5" fill="rgba(244,240,235,0.4)"/>
  <defs>
    <linearGradient id="paint0_linear" x1="104" y1="76" x2="856" y2="644" gradientUnits="userSpaceOnUse">
      <stop stop-color="#07101A"/>
      <stop offset="0.5" stop-color="#0B1521"/>
      <stop offset="1" stop-color="#131F35"/>
    </linearGradient>
  </defs>
</svg>
