<svg width="1600" height="980" viewBox="0 0 1600 980" fill="none" xmlns="http://www.w3.org/2000/svg" role="img" aria-labelledby="title desc">
  <title id="title">Process signal diagram</title>
  <desc id="desc">A technology process illustration with connected stages, orbital paths, and layered signal lines.</desc>
  <defs>
    <linearGradient id="bg" x1="196" y1="90" x2="1368" y2="858" gradientUnits="userSpaceOnUse">
      <stop stop-color="#08121F" />
      <stop offset="0.56" stop-color="#0C1730" />
      <stop offset="1" stop-color="#060A12" />
    </linearGradient>
    <radialGradient id="cyan" cx="0" cy="0" r="1" gradientUnits="userSpaceOnUse" gradientTransform="translate(344 254) rotate(49.7) scale(320 220)">
      <stop stop-color="#75E2FF" stop-opacity="0.9" />
      <stop offset="1" stop-color="#75E2FF" stop-opacity="0" />
    </radialGradient>
    <radialGradient id="amber" cx="0" cy="0" r="1" gradientUnits="userSpaceOnUse" gradientTransform="translate(1204 728) rotate(142) scale(320 240)">
      <stop stop-color="#FFB184" stop-opacity="0.88" />
      <stop offset="1" stop-color="#FFB184" stop-opacity="0" />
    </radialGradient>
  </defs>
  <rect width="1600" height="980" rx="40" fill="url(#bg)" />
  <ellipse cx="342" cy="254" rx="214" ry="138" fill="url(#cyan)" />
  <ellipse cx="1202" cy="730" rx="220" ry="152" fill="url(#amber)" />
  <g opacity="0.34" stroke="#9ADFFF" stroke-width="1">
    <path d="M106 162H1494" />
    <path d="M106 330H1494" />
    <path d="M106 498H1494" />
    <path d="M106 666H1494" />
    <path d="M106 834H1494" />
  </g>
  <path d="M258 490C386 370 526 338 670 384C806 426 906 432 1020 362C1126 296 1248 300 1358 392" stroke="#7FE3FF" stroke-opacity="0.56" stroke-width="3.5" stroke-linecap="round" />
  <path d="M256 532C392 446 514 444 650 504C786 562 916 568 1042 510C1164 454 1274 456 1360 520" stroke="#FFB184" stroke-opacity="0.58" stroke-width="3" stroke-linecap="round" />
  <path d="M254 576C390 536 520 558 648 630C782 704 920 710 1040 662C1164 614 1274 610 1364 662" stroke="#7FE3FF" stroke-opacity="0.34" stroke-width="2.5" stroke-linecap="round" />
  <g>
    <circle cx="300" cy="476" r="78" fill="#0C1730" stroke="#82E5FF" stroke-opacity="0.32" stroke-width="2" />
    <circle cx="300" cy="476" r="40" fill="#13243A" stroke="#82E5FF" stroke-opacity="0.58" />
    <circle cx="300" cy="476" r="10" fill="#F6FBFF" />
  </g>
  <g>
    <circle cx="644" cy="438" r="92" fill="#0B1424" stroke="#82E5FF" stroke-opacity="0.28" stroke-width="2" />
    <circle cx="644" cy="438" r="50" fill="#13243A" stroke="#FFB184" stroke-opacity="0.54" />
    <rect x="614" y="518" width="60" height="12" rx="6" fill="#82E5FF" fill-opacity="0.22" />
  </g>
  <g>
    <circle cx="972" cy="448" r="86" fill="#0C1730" stroke="#82E5FF" stroke-opacity="0.28" stroke-width="2" />
    <circle cx="972" cy="448" r="46" fill="#13243A" stroke="#82E5FF" stroke-opacity="0.62" />
    <circle cx="972" cy="448" r="10" fill="#F6FBFF" />
  </g>
  <g>
    <circle cx="1288" cy="492" r="102" fill="#0B1424" stroke="#FFB184" stroke-opacity="0.3" stroke-width="2" />
    <circle cx="1288" cy="492" r="58" fill="#13243A" stroke="#82E5FF" stroke-opacity="0.48" />
    <circle cx="1288" cy="492" r="12" fill="#F6FBFF" />
  </g>
  <rect x="226" y="708" width="252" height="120" rx="26" fill="#0A1322" stroke="#82E5FF" stroke-opacity="0.18" />
  <rect x="518" y="708" width="252" height="120" rx="26" fill="#0E1830" stroke="#82E5FF" stroke-opacity="0.2" />
  <rect x="810" y="708" width="252" height="120" rx="26" fill="#0A1322" stroke="#FFB184" stroke-opacity="0.2" />
  <rect x="1102" y="708" width="252" height="120" rx="26" fill="#0E1830" stroke="#82E5FF" stroke-opacity="0.2" />
  <rect x="258" y="746" width="142" height="14" rx="7" fill="#82E5FF" fill-opacity="0.18" />
  <rect x="550" y="746" width="142" height="14" rx="7" fill="#82E5FF" fill-opacity="0.18" />
  <rect x="842" y="746" width="142" height="14" rx="7" fill="#FFB184" fill-opacity="0.18" />
  <rect x="1134" y="746" width="142" height="14" rx="7" fill="#82E5FF" fill-opacity="0.18" />
</svg>
