<svg width="1600" height="1000" viewBox="0 0 1600 1000" fill="none" xmlns="http://www.w3.org/2000/svg">
  <defs>
    <linearGradient id="bg" x1="190.5" y1="74" x2="1388.5" y2="934" gradientUnits="userSpaceOnUse">
      <stop stop-color="#020610" />
      <stop offset="0.42" stop-color="#081120" />
      <stop offset="1" stop-color="#020712" />
    </linearGradient>
    <radialGradient id="nebulaA" cx="0" cy="0" r="1" gradientUnits="userSpaceOnUse" gradientTransform="translate(392 338) rotate(31.214) scale(424.12 286.18)">
      <stop stop-color="#6C7EFF" stop-opacity="0.54" />
      <stop offset="0.42" stop-color="#2551C2" stop-opacity="0.18" />
      <stop offset="1" stop-color="#2551C2" stop-opacity="0" />
    </radialGradient>
    <radialGradient id="nebulaB" cx="0" cy="0" r="1" gradientUnits="userSpaceOnUse" gradientTransform="translate(1118 396) rotate(18.873) scale(498.23 312.45)">
      <stop stop-color="#7FEAFF" stop-opacity="0.42" />
      <stop offset="0.45" stop-color="#2B88C5" stop-opacity="0.16" />
      <stop offset="1" stop-color="#2B88C5" stop-opacity="0" />
    </radialGradient>
    <radialGradient id="nebulaC" cx="0" cy="0" r="1" gradientUnits="userSpaceOnUse" gradientTransform="translate(1220 760) rotate(-9.517) scale(408.51 246.72)">
      <stop stop-color="#FF935F" stop-opacity="0.32" />
      <stop offset="0.52" stop-color="#E56752" stop-opacity="0.12" />
      <stop offset="1" stop-color="#E56752" stop-opacity="0" />
    </radialGradient>
    <radialGradient id="coreGlow" cx="0" cy="0" r="1" gradientUnits="userSpaceOnUse" gradientTransform="translate(968 520) rotate(180) scale(255 255)">
      <stop stop-color="#F4FBFF" stop-opacity="0.9" />
      <stop offset="0.2" stop-color="#9BE7FF" stop-opacity="0.78" />
      <stop offset="0.52" stop-color="#4C78FF" stop-opacity="0.28" />
      <stop offset="1" stop-color="#4C78FF" stop-opacity="0" />
    </radialGradient>
    <radialGradient id="dustGlow" cx="0" cy="0" r="1" gradientUnits="userSpaceOnUse" gradientTransform="translate(980 544) rotate(180) scale(492 298)">
      <stop stop-color="#7FE8FF" stop-opacity="0.24" />
      <stop offset="0.58" stop-color="#7FE8FF" stop-opacity="0.07" />
      <stop offset="1" stop-color="#7FE8FF" stop-opacity="0" />
    </radialGradient>
    <filter id="blurXL" x="-220" y="-220" width="2040" height="1440" filterUnits="userSpaceOnUse" color-interpolation-filters="sRGB">
      <feGaussianBlur stdDeviation="88" />
    </filter>
    <filter id="blurMD" x="-120" y="-120" width="1840" height="1240" filterUnits="userSpaceOnUse" color-interpolation-filters="sRGB">
      <feGaussianBlur stdDeviation="42" />
    </filter>
    <filter id="softGlow" x="-60" y="-60" width="1720" height="1120" filterUnits="userSpaceOnUse" color-interpolation-filters="sRGB">
      <feGaussianBlur stdDeviation="14" />
    </filter>
    <linearGradient id="orbitStroke" x1="640" y1="266" x2="1318" y2="808" gradientUnits="userSpaceOnUse">
      <stop stop-color="#8BE8FF" stop-opacity="0.08" />
      <stop offset="0.38" stop-color="#9BE8FF" stop-opacity="0.36" />
      <stop offset="0.72" stop-color="#6F85FF" stop-opacity="0.18" />
      <stop offset="1" stop-color="#FF9360" stop-opacity="0.32" />
    </linearGradient>
    <linearGradient id="orbitStrokeAlt" x1="580" y1="180" x2="1400" y2="920" gradientUnits="userSpaceOnUse">
      <stop stop-color="#F3FCFF" stop-opacity="0.14" />
      <stop offset="0.42" stop-color="#78E7FF" stop-opacity="0.42" />
      <stop offset="1" stop-color="#FF9360" stop-opacity="0.18" />
    </linearGradient>
  </defs>

  <rect width="1600" height="1000" fill="url(#bg)" />

  <g opacity="0.9" filter="url(#blurXL)">
    <ellipse cx="388" cy="332" rx="244" ry="164" transform="rotate(28 388 332)" fill="url(#nebulaA)" />
    <ellipse cx="1134" cy="384" rx="286" ry="184" transform="rotate(17 1134 384)" fill="url(#nebulaB)" />
    <ellipse cx="1210" cy="756" rx="248" ry="146" transform="rotate(-11 1210 756)" fill="url(#nebulaC)" />
  </g>

  <g opacity="0.96" filter="url(#blurMD)">
    <ellipse cx="968" cy="520" rx="116" ry="116" fill="url(#coreGlow)" />
    <ellipse cx="980" cy="544" rx="312" ry="188" transform="rotate(-9 980 544)" fill="url(#dustGlow)" />
  </g>

  <g opacity="0.82">
    <path d="M644 308C763 226 930 228 1074 300C1185 355 1276 454 1320 574" stroke="url(#orbitStrokeAlt)" stroke-width="2.2" stroke-linecap="round" />
    <path d="M598 430C670 326 792 262 934 260C1115 257 1260 354 1332 518" stroke="url(#orbitStroke)" stroke-width="1.8" stroke-linecap="round" stroke-dasharray="2 12" />
    <path d="M732 710C844 784 1012 802 1166 742C1281 698 1364 612 1398 496" stroke="url(#orbitStrokeAlt)" stroke-width="1.7" stroke-linecap="round" stroke-dasharray="2 10" />
    <path d="M680 634C764 708 910 748 1058 732C1202 718 1326 654 1388 566" stroke="url(#orbitStroke)" stroke-width="1.4" stroke-linecap="round" />
  </g>

  <g filter="url(#softGlow)">
    <circle cx="935" cy="500" r="5" fill="#B5F2FF" />
    <circle cx="1010" cy="532" r="4.6" fill="#9FE9FF" />
    <circle cx="1096" cy="596" r="4.3" fill="#FFB28E" />
    <circle cx="879" cy="582" r="3.8" fill="#8DB7FF" />
    <circle cx="1222" cy="462" r="3.2" fill="#D7F6FF" />
    <circle cx="1294" cy="538" r="2.8" fill="#A0F1FF" />
  </g>

  <g opacity="0.9">
    <circle cx="124" cy="116" r="1.2" fill="#EAF8FF" />
    <circle cx="212" cy="248" r="1.5" fill="#D8F8FF" />
    <circle cx="294" cy="170" r="1.1" fill="#EAF8FF" />
    <circle cx="336" cy="412" r="1.3" fill="#BDEBFF" />
    <circle cx="432" cy="116" r="1.3" fill="#EAF8FF" />
    <circle cx="506" cy="302" r="1.4" fill="#D6F6FF" />
    <circle cx="568" cy="170" r="1" fill="#EAF8FF" />
    <circle cx="656" cy="118" r="1.2" fill="#D1F1FF" />
    <circle cx="708" cy="372" r="1.1" fill="#BDEBFF" />
    <circle cx="812" cy="134" r="1.3" fill="#EAF8FF" />
    <circle cx="904" cy="88" r="1.2" fill="#D8F8FF" />
    <circle cx="1018" cy="156" r="1.5" fill="#EAF8FF" />
    <circle cx="1122" cy="104" r="1.2" fill="#DBF7FF" />
    <circle cx="1196" cy="248" r="1.1" fill="#D0F4FF" />
    <circle cx="1292" cy="132" r="1.4" fill="#F8FAFF" />
    <circle cx="1380" cy="222" r="1.2" fill="#D7F8FF" />
    <circle cx="1456" cy="160" r="1" fill="#ECF7FF" />
    <circle cx="1502" cy="314" r="1.2" fill="#BDEBFF" />
    <circle cx="140" cy="558" r="1.1" fill="#D3F4FF" />
    <circle cx="236" cy="632" r="1.4" fill="#EAF8FF" />
    <circle cx="362" cy="712" r="1.1" fill="#C8F0FF" />
    <circle cx="474" cy="596" r="1.2" fill="#EAF8FF" />
    <circle cx="556" cy="844" r="1.5" fill="#D0F4FF" />
    <circle cx="650" cy="754" r="1.3" fill="#F7FAFF" />
    <circle cx="728" cy="878" r="1.2" fill="#EAF8FF" />
    <circle cx="814" cy="794" r="1.1" fill="#DBF7FF" />
    <circle cx="918" cy="908" r="1.3" fill="#C7F1FF" />
    <circle cx="1048" cy="834" r="1.5" fill="#F8FAFF" />
    <circle cx="1168" cy="912" r="1.2" fill="#D0F4FF" />
    <circle cx="1270" cy="828" r="1.1" fill="#F7FAFF" />
    <circle cx="1388" cy="884" r="1.3" fill="#DDF7FF" />
    <circle cx="1476" cy="778" r="1.2" fill="#C8F0FF" />
  </g>

  <g opacity="0.44">
    <path d="M0 830C182 768 344 738 500 748C676 760 816 838 998 856C1178 872 1340 830 1600 702V1000H0V830Z" fill="url(#nebulaC)" />
  </g>
</svg>
