<svg xmlns="http://www.w3.org/2000/svg" viewBox="0 0 1600 980" role="img"><defs><linearGradient id="bg" x1="0" y1="0" x2="1" y2="1"><stop offset="0" stop-color="#02050c"/><stop offset=".55" stop-color="#071321"/><stop offset="1" stop-color="#03060b"/></linearGradient></defs><rect width="1600" height="980" fill="url(#bg)"/><circle cx="1140" cy="540" r="210" fill="#0b1626" stroke="#95e4ff" stroke-opacity=".18"/><g stroke="#8ddfff" fill="none"><path d="M300 600c120-80 272-116 447-107s309 62 413 154" stroke-opacity=".35" stroke-width="3"/><path d="M280 693c134-76 262-111 394-108 132 3 255 43 370 119" stroke-opacity=".18" stroke-width="2"/></g><g transform="translate(920 310)" stroke="#93e5ff" stroke-opacity=".35"><path d="M0 0 136 92"/><path d="M0 0-126 106"/><path d="M0 0 22 176"/></g><g fill="#7ce4ff"><circle cx="920" cy="310" r="8"/><circle cx="1056" cy="402" r="6"/><circle cx="794" cy="416" r="6"/><circle cx="942" cy="486" r="6"/></g></svg>
